<mxfile host="app.diagrams.net" agent="Mozilla/5.0 (Macintosh; Intel Mac OS X 10_15_7) AppleWebKit/537.36 (KHTML, like Gecko) Chrome/132.0.0.0 Safari/537.36" version="26.0.14">
  <diagram name="第 1 页" id="xQG21W5mX2yJOL5AeQkj">
    <mxGraphModel dx="1391" dy="761" grid="1" gridSize="10" guides="1" tooltips="1" connect="1" arrows="1" fold="1" page="1" pageScale="1" pageWidth="827" pageHeight="1169" math="0" shadow="0">
      <root>
        <mxCell id="0" />
        <mxCell id="1" parent="0" />
        <mxCell id="K1igxSFGgHAnKbKog8Dg-1" value="Switch" style="swimlane;childLayout=stackLayout;resizeParent=1;resizeParentMax=0;startSize=20;html=1;" vertex="1" parent="1">
          <mxGeometry x="230.00000000000045" y="150" width="360" height="480" as="geometry" />
        </mxCell>
        <mxCell id="K1igxSFGgHAnKbKog8Dg-2" value="case 1" style="swimlane;startSize=20;html=1;" vertex="1" parent="K1igxSFGgHAnKbKog8Dg-1">
          <mxGeometry y="20" width="120" height="460" as="geometry" />
        </mxCell>
        <mxCell id="K1igxSFGgHAnKbKog8Dg-3" value="case 2" style="swimlane;startSize=20;html=1;" vertex="1" parent="K1igxSFGgHAnKbKog8Dg-1">
          <mxGeometry x="120" y="20" width="120" height="460" as="geometry" />
        </mxCell>
        <mxCell id="K1igxSFGgHAnKbKog8Dg-4" value="case 3" style="swimlane;startSize=20;html=1;" vertex="1" parent="K1igxSFGgHAnKbKog8Dg-1">
          <mxGeometry x="240" y="20" width="120" height="460" as="geometry" />
        </mxCell>
        <mxCell id="K1igxSFGgHAnKbKog8Dg-5" value="Switch" style="swimlane;childLayout=stackLayout;resizeParent=1;resizeParentMax=0;horizontal=1;startSize=20;horizontalStack=0;html=1;" vertex="1" parent="1">
          <mxGeometry x="650" y="280" width="480" height="380" as="geometry" />
        </mxCell>
        <mxCell id="K1igxSFGgHAnKbKog8Dg-6" value="Case 1" style="swimlane;startSize=20;horizontal=0;html=1;" vertex="1" parent="K1igxSFGgHAnKbKog8Dg-5">
          <mxGeometry y="20" width="480" height="120" as="geometry" />
        </mxCell>
        <mxCell id="K1igxSFGgHAnKbKog8Dg-7" value="Case 2" style="swimlane;startSize=20;horizontal=0;html=1;" vertex="1" parent="K1igxSFGgHAnKbKog8Dg-5">
          <mxGeometry y="140" width="480" height="120" as="geometry" />
        </mxCell>
        <mxCell id="K1igxSFGgHAnKbKog8Dg-8" value="Case 3" style="swimlane;startSize=20;horizontal=0;html=1;" vertex="1" parent="K1igxSFGgHAnKbKog8Dg-5">
          <mxGeometry y="260" width="480" height="120" as="geometry" />
        </mxCell>
        <mxCell id="K1igxSFGgHAnKbKog8Dg-9" value="Loop" style="swimlane;whiteSpace=wrap;html=1;" vertex="1" parent="1">
          <mxGeometry x="660" y="60" width="200" height="200" as="geometry" />
        </mxCell>
      </root>
    </mxGraphModel>
  </diagram>
</mxfile>
